PathFileType	4	(X/Y/Z)	Kaydara	
DataRate	CameraRate	NumFrames	NumMarkers	Units	OrigDataRate	OrigDataStartFrame	OrigNumFrames	
60.00	60.00	4	74	mm	60.00	417	98	
Frame#	Time	Y_rasi			Y_rpsi			Y_lpsi			Y_fneck			Y_bneck			Y_fhead			Y_rhead			Y_rshld			Y_relbtop			Y_relbext			Y_relblow			Y_rwrext			Y_rwrtop			Y_rwrlow			Y_lshld			Y_lelbext			Y_lelblow			Y_lelbtop			Y_lwrext			Y_lwrtop			Y_lwrlow			Y_rtopleg			Y_ltopleg			Y_rkneefr			Y_rkneebk			Y_rkneeis			Y_lkneefr			Y_lknssbk			Y_lkneeis			Y_rankfr			Y_rankis			Y_rankbk			Y_lankfr			Y_lankbk			Y_lankis			Y_lhead			Y_lasi			D_rpsi			D_lpsi			D_fneck			D_bneck			D_fhead			D_rhead			D_lhead			D_rshld			D_relbtop			D_relbext			D_relblow			D_rwrext			D_rwrtop			D_rwrlow			D_lshld			D_lelbext			D_lelblow			D_lelbtop			D_lwrext			D_lwrtop			D_lwrlow			D_rtopleg			D_ltopleg			D_rkneefr			D_rkneebk			D_rkneeis			D_lkneefr			D_lknssbk			D_lkneeis			D_rankfr			D_rankis			D_rankbk			D_lankfr			D_lankbk			D_lankis			D_lasi			D_rasi			
		X1	Y1	Z1	X2	Y2	Z2	X3	Y3	Z3	X4	Y4	Z4	X5	Y5	Z5	X6	Y6	Z6	X7	Y7	Z7	X8	Y8	Z8	X9	Y9	Z9	X10	Y10	Z10	X11	Y11	Z11	X12	Y12	Z12	X13	Y13	Z13	X14	Y14	Z14	X15	Y15	Z15	X16	Y16	Z16	X17	Y17	Z17	X18	Y18	Z18	X19	Y19	Z19	X20	Y20	Z20	X21	Y21	Z21	X22	Y22	Z22	X23	Y23	Z23	X24	Y24	Z24	X25	Y25	Z25	X26	Y26	Z26	X27	Y27	Z27	X28	Y28	Z28	X29	Y29	Z29	X30	Y30	Z30	X31	Y31	Z31	X32	Y32	Z32	X33	Y33	Z33	X34	Y34	Z34	X35	Y35	Z35	X36	Y36	Z36	X37	Y37	Z37	X38	Y38	Z38	X39	Y39	Z39	X40	Y40	Z40	X41	Y41	Z41	X42	Y42	Z42	X43	Y43	Z43	X44	Y44	Z44	X45	Y45	Z45	X46	Y46	Z46	X47	Y47	Z47	X48	Y48	Z48	X49	Y49	Z49	X50	Y50	Z50	X51	Y51	Z51	X52	Y52	Z52	X53	Y53	Z53	X54	Y54	Z54	X55	Y55	Z55	X56	Y56	Z56	X57	Y57	Z57	X58	Y58	Z58	X59	Y59	Z59	X60	Y60	Z60	X61	Y61	Z61	X62	Y62	Z62	X63	Y63	Z63	X64	Y64	Z64	X65	Y65	Z65	X66	Y66	Z66	X67	Y67	Z67	X68	Y68	Z68	X69	Y69	Z69	X70	Y70	Z70	X71	Y71	Z71	X72	Y72	Z72	X73	Y73	Z73	X74	Y74	Z74	

50	6.933	-556.07445	1084.69177	-131.35940	-550.68787	1074.33319	-310.35049	-323.76263	1064.85275	-238.92788	-474.53430	1436.05164	-142.62200	-389.10721	1485.22385	-220.07017	-522.89261	1640.58731	-81.41379	-481.63406	1578.75626	-244.54046	-609.77646	1426.34399	-270.84757	-649.07539	1114.10530	-321.64452	-654.61868	1134.38629	-377.10052	-588.04947	1113.57941	-377.71130	-687.85019	851.52573	-332.65232	-721.23802	865.73868	-310.27121	-705.67543	875.78850	-268.72192	-251.77010	1385.44418	-96.10454	-169.00000	1082.23434	-159.52181	-219.21923	1070.98679	-189.48454	-216.56658	1083.19283	-116.87743	-218.65509	825.61234	-113.07215	-214.82286	831.73065	-70.53043	-257.61036	845.75706	-63.41456	-623.63117	915.89577	-277.21684	-288.41082	906.67374	-133.55979	-636.69518	412.40917	-278.43163	-615.08408	456.42487	-353.87661	-540.98278	418.11325	-269.24543	-333.00282	475.65361	-119.76007	-269.00368	495.61398	-212.39649	-389.77993	469.95823	-197.61181	-631.17371	141.74626	-329.13712	-560.24956	133.76804	-342.02301	-602.08206	136.85070	-395.13275	-274.99352	132.23805	-170.78367	-258.35400	130.11494	-239.15739	-332.26288	127.28478	-208.07831	-368.71151	1570.46829	-141.64268	-405.77034	1072.63184	-82.90437	-928.00682	1178.47183	622.87746	-1073.67729	1195.23125	522.23804	-909.37752	1617.96600	488.45016	-996.08101	1660.11246	567.39998	-888.22739	1808.49243	368.61912	-909.22333	1810.03922	546.85230	-1036.07430	1797.76611	462.00054	-802.55333	1574.90845	610.82703	-770.65201	1205.09544	584.78012	-708.42857	1218.09258	605.38509	-754.51454	1201.56883	667.60880	-694.14719	934.63448	521.72573	-690.79529	949.29550	482.34798	-736.45546	957.13272	468.64311	-1141.34827	1567.87155	432.24159	-1158.80539	1196.65009	361.32374	-1136.09032	1174.59198	432.32010	-1095.45410	1203.07243	362.87365	-1099.48952	951.42792	317.35880	-1073.85849	970.96367	285.44035	-1035.12146	970.65399	316.23964	-818.22990	1037.10945	611.42731	-1105.58731	1036.09474	406.88137	-823.25592	560.52200	494.78352	-829.59839	559.89754	607.43099	-933.12881	547.83569	535.32150	-1010.61729	472.94147	389.52675	-1098.78380	519.52885	444.62906	-1009.07898	501.22608	503.86734	-833.80318	192.13085	554.84264	-909.78790	186.98015	540.92937	-881.78833	182.64013	622.28218	-1057.45369	164.13858	417.54021	-1076.57669	153.51011	493.47450	-994.00162	165.56463	450.67184	-992.98180	1196.47621	378.49522	-817.43385	1184.86328	486.43997 
51	6.950	-555.03300	1084.57382	-131.34515	-549.80015	1074.28566	-310.33480	-322.76909	1064.78836	-239.04213	-473.75828	1436.15891	-142.57222	-388.50533	1485.13321	-220.01469	-521.97506	1640.75989	-81.50799	-481.15875	1578.76205	-244.69967	-609.13109	1426.21185	-270.75190	-648.11951	1113.94974	-320.87250	-653.71498	1134.04160	-376.44688	-586.88484	1113.24249	-377.40910	-687.32391	851.77727	-329.35402	-720.59082	866.28159	-306.85778	-704.90341	876.81976	-265.64150	-251.09774	1385.40909	-95.97008	-169.06742	1081.62430	-158.67053	-219.07019	1070.47394	-188.80423	-216.84719	1083.47260	-116.08017	-222.49962	826.24641	-108.31603	-218.80869	833.03871	-65.90748	-261.68541	847.90222	-57.81316	-622.86430	915.84747	-276.99261	-287.58150	906.66641	-133.57800	-636.29494	412.53338	-278.33519	-614.42478	456.45248	-353.82996	-540.76103	418.00243	-268.92927	-332.00798	475.57217	-119.86979	-268.68996	495.54092	-212.17783	-389.13120	470.05787	-197.57853	-630.98858	141.70847	-329.11732	-560.26867	133.69378	-341.81442	-601.94721	136.84922	-395.09109	-274.98611	132.18401	-170.68966	-258.28949	130.06307	-239.09948	-332.24983	127.36098	-208.08897	-368.00537	1570.45593	-141.76936	-404.99622	1072.58667	-83.18120	-928.73352	1178.64258	622.57248	-1074.32106	1195.22339	521.97861	-910.08652	1618.02780	487.44820	-996.62514	1660.32745	566.22662	-888.59383	1808.22647	367.10056	-910.00038	1810.21942	545.28542	-1036.70937	1797.73529	460.08144	-803.09326	1575.01602	609.15543	-771.95679	1205.07751	583.14846	-709.71497	1217.95799	603.70529	-755.63698	1201.38329	665.90729	-695.91347	934.57146	519.78722	-692.44736	949.17107	480.36690	-738.15445	957.17613	466.62834	-1142.10007	1567.70767	431.65474	-1159.61357	1196.59752	360.27168	-1137.11342	1174.53644	431.30917	-1096.28021	1202.94250	361.91204	-1100.55725	951.33156	316.03722	-1074.82269	970.89020	284.44973	-1036.14090	970.59608	314.75740	-818.92990	1037.25983	611.01582	-1106.42548	1036.02577	406.89793	-823.51059	560.54031	494.39438	-830.08652	559.83643	607.03152	-933.37448	547.80376	534.84341	-1011.35574	472.99564	389.25774	-1099.30153	519.44324	444.86317	-1009.51370	501.11023	503.81172	-833.96950	192.17033	554.68575	-909.93958	186.93842	540.73097	-881.91566	182.66056	622.04754	-1057.65587	164.09136	417.60254	-1076.68167	153.40318	493.55156	-994.16504	165.55553	450.62016	-993.70743	1196.25160	378.10177	-818.20076	1184.72191	486.04893 
52	6.967	-554.07562	1084.49448	-131.20996	-549.00715	1074.18762	-310.20288	-322.10506	1064.70802	-238.77953	-472.88376	1436.34262	-142.38600	-387.71191	1485.09918	-219.83208	-521.25977	1640.86273	-81.54318	-480.06538	1578.62885	-244.67936	-608.38634	1426.14609	-270.57856	-647.10632	1113.84323	-320.31361	-652.88887	1133.75206	-376.03226	-586.22902	1112.88490	-376.97174	-686.80466	852.13242	-326.12041	-719.85893	866.80130	-303.51414	-703.64647	877.49130	-262.49899	-250.45805	1385.47180	-95.76040	-169.24969	1081.01257	-157.63170	-219.13342	1069.99374	-187.90346	-217.28849	1083.64090	-115.13907	-226.33751	826.87622	-103.63615	-222.52359	834.46754	-61.42698	-265.35480	850.09140	-55.10639	-621.65314	915.65315	-276.81675	-286.50808	906.69594	-133.63210	-635.82008	412.58320	-278.30435	-613.85277	456.50517	-353.72181	-540.31933	417.89288	-268.68378	-331.27243	475.46215	-119.92531	-268.37372	495.52788	-212.08973	-388.74435	470.08495	-197.56050	-630.93544	141.76496	-329.08638	-560.09979	133.69649	-341.71898	-601.79352	136.77373	-395.07053	-274.65155	132.11619	-170.81539	-258.21405	130.01818	-239.10931	-332.11533	127.37213	-208.10017	-367.22359	1570.56778	-141.53241	-404.03111	1072.55333	-83.05041	-929.25636	1178.88649	622.30873	-1074.89723	1195.27489	521.82152	-910.87173	1618.05695	486.25710	-997.40791	1660.52246	565.13081	-888.90404	1807.87964	365.46909	-910.66040	1810.43304	543.55171	-1037.16110	1797.79144	458.12420	-803.47649	1574.91302	607.66041	-772.92168	1205.02663	581.43372	-710.75027	1217.71629	602.47292	-757.10625	1201.19347	664.46655	-697.71584	934.30862	518.38238	-693.68301	948.88519	478.88889	-739.39934	957.11143	464.82861	-1143.05984	1567.56866	431.07124	-1160.61478	1196.54396	359.49471	-1137.98660	1174.38477	430.46497	-1097.15210	1202.89185	361.03142	-1101.47720	951.33194	314.94207	-1075.75012	970.78979	283.67270	-1037.15805	970.41252	313.86002	-819.79004	1037.37389	610.90706	-1107.31834	1036.11145	407.00794	-823.77846	560.62721	493.87035	-830.51582	559.83295	606.58924	-933.65425	547.79945	534.26208	-1011.62758	472.94777	389.10957	-1099.55185	519.28520	444.72820	-1009.71054	501.03401	503.53210	-834.06868	192.19616	554.54266	-910.07370	186.89266	540.57323	-882.05330	182.73674	621.83788	-1057.74010	163.99473	417.56523	-1076.73279	153.35216	493.52043	-994.24385	165.55218	450.49339	-994.62990	1196.13937	377.03468	-819.06418	1184.64127	485.54504 
53	6.983	-553.15392	1084.42574	-131.04233	-548.17886	1074.09554	-310.09850	-322.24701	1064.82048	-237.77563	-472.11422	1436.44608	-142.20251	-387.04792	1485.05341	-219.83521	-520.52296	1640.82642	-81.66372	-479.23630	1578.58017	-244.56537	-607.73933	1425.99609	-270.40478	-645.99976	1113.68156	-319.69200	-651.86432	1133.38638	-375.42870	-585.04578	1112.61208	-376.76373	-686.30539	852.45590	-323.04916	-719.10355	867.45331	-300.27056	-702.81197	878.64647	-259.61191	-249.53432	1385.41824	-95.90085	-169.33247	1080.40855	-156.57179	-219.33544	1069.37950	-186.80967	-217.57559	1083.82492	-114.01161	-229.72778	827.58904	-99.09525	-226.24527	835.78323	-56.76505	-269.02689	852.16667	-50.91142	-620.12024	915.19791	-276.92657	-285.67987	906.69807	-133.43868	-635.40306	412.70000	-278.34625	-613.32550	456.52706	-353.62377	-539.80091	417.89497	-268.62331	-330.94048	475.44159	-119.89941	-267.45834	495.69828	-212.51007	-388.23792	470.09708	-197.63550	-630.91938	141.87072	-329.02996	-559.99348	133.65775	-341.63448	-601.66409	136.79937	-395.04532	-274.46234	132.03271	-170.92476	-258.06881	129.99442	-239.15136	-331.85997	127.34637	-208.09835	-366.40896	1570.57098	-141.52757	-403.10253	1072.53357	-82.60448	-929.71588	1179.12369	622.19852	-1075.40634	1195.32852	521.80454	-911.45157	1618.01208	485.21099	-997.95944	1660.63202	564.07078	-889.08554	1807.61917	363.94741	-911.40236	1810.47897	541.86234	-1037.69363	1797.75925	456.18572	-803.99933	1574.68964	606.48190	-773.89229	1204.92287	580.08656	-711.68839	1217.45438	601.46458	-758.65227	1200.91164	663.19771	-699.61052	933.87619	517.34898	-695.06828	948.37746	478.21461	-740.27626	957.02316	463.13992	-1143.99643	1567.36557	430.92094	-1161.54495	1196.40381	358.93307	-1138.77106	1174.25262	429.81750	-1098.09166	1202.78191	360.37521	-1102.53494	951.32767	313.93724	-1076.84067	970.93788	282.28855	-1038.60397	970.48363	312.06423	-820.56885	1037.53448	611.10668	-1108.11577	1036.09344	407.11502	-824.01634	560.71690	493.54862	-830.71289	559.96647	606.21593	-933.95134	547.85141	533.92818	-1011.65382	472.85702	388.82320	-1099.67270	519.13067	444.30691	-1009.64005	500.93601	503.12405	-834.20525	192.21882	554.39583	-910.21049	186.85650	540.48420	-882.17224	182.79011	621.67530	-1057.72865	163.89809	417.46403	-1076.74515	153.37930	493.41877	-994.27010	165.50047	450.38021	-995.43320	1195.83687	377.12719	-819.77173	1184.60762	484.86034 
